<?xml version="1.0" encoding="utf-8"?>
<!-- Generator: Adobe Illustrator 16.2.0, SVG Export Plug-In . SVG Version: 6.00 Build 0)  -->
<!DOCTYPE svg PUBLIC "-//W3C//DTD SVG 1.1//EN" "http://www.w3.org/Graphics/SVG/1.1/DTD/svg11.dtd">
<svg version="1.1" id="Expressions" xmlns="http://www.w3.org/2000/svg" xmlns:xlink="http://www.w3.org/1999/xlink" x="0px"
	 y="0px" width="216px" height="216px" viewBox="0 0 216 216" enable-background="new 0 0 216 216" xml:space="preserve">
<g id="Backgrounds">
	<path fill="#262262" d="M192.553,88.718h-1.52c-0.621,0-1.357,0-2.084,0v-3.094c0-2.485-2.014-4.5-4.5-4.5h-1.799
		c-0.789,0-1.73,0-2.65,0v-18c0-4.971-4.031-9-9-9h-25.5c0-1.214,0-2.605,0-3.7v-1.8c0-2.485-2.016-4.5-4.5-4.5h-10
		c0-0.623,0-1.23,0-1.767v-1.8c0-2.485-2.016-4.5-4.5-4.5h-15.334V13.46c1.434-1.002,2.375-2.662,2.375-4.544
		c0-3.061-2.48-5.542-5.542-5.542c-3.061,0-5.541,2.481-5.541,5.542c0,1.882,0.94,3.542,2.375,4.544v22.598H89.5
		c-2.485,0-4.5,2.015-4.5,4.5v1.8c0,0.536,0,1.144,0,1.767H75c-2.485,0-4.5,2.015-4.5,4.5v1.8c0,1.095,0,2.486,0,3.7H45
		c-4.971,0-9,4.029-9,9v18c-0.919,0-1.862,0-2.65,0h-1.8c-2.485,0-4.5,2.015-4.5,4.5v3.094c-0.727,0-1.462,0-2.084,0h-1.519
		c-2.098,0-3.797,1.699-3.797,3.797v31.219c0,2.096,1.699,3.797,3.797,3.797h1.519c0.622,0,1.357,0,2.084,0v3.094
		c0,2.485,2.015,4.5,4.5,4.5h1.8c0.789,0,1.731,0,2.65,0v18c0,4.971,4.029,9,9,9h126c4.969,0,9-4.029,9-9v-18c0.92,0,1.861,0,2.65,0
		h1.799c2.486,0,4.5-2.015,4.5-4.5v-3.094c0.727,0,1.463,0,2.084,0h1.52c2.098,0,3.797-1.701,3.797-3.797V92.515
		C196.35,90.417,194.65,88.718,192.553,88.718z M171,141.75c0,6.213-4.029,11.25-9,11.25H54c-4.971,0-9-5.037-9-11.25v-67.5
		C45,68.037,49.029,63,54,63h108c4.971,0,9,5.037,9,11.25V141.75z"/>
</g>
<g>
</g>
<g>
</g>
<g>
</g>
<g>
</g>
<g>
</g>
<g>
</g>
</svg>
