<?xml version="1.0" encoding="utf-8"?>
<!-- Generator: Adobe Illustrator 16.2.0, SVG Export Plug-In . SVG Version: 6.00 Build 0)  -->
<!DOCTYPE svg PUBLIC "-//W3C//DTD SVG 1.1//EN" "http://www.w3.org/Graphics/SVG/1.1/DTD/svg11.dtd">
<svg version="1.1" id="Expressions" xmlns="http://www.w3.org/2000/svg" xmlns:xlink="http://www.w3.org/1999/xlink" x="0px"
	 y="0px" width="216px" height="216px" viewBox="0 0 216 216" enable-background="new 0 0 216 216" xml:space="preserve">
<g id="Backgrounds" display="none">
	<path display="inline" fill="none" stroke="#000000" stroke-miterlimit="10" d="M171,141.75c0,6.213-4.029,11.25-9,11.25H54
		c-4.971,0-9-5.037-9-11.25v-67.5C45,68.037,49.029,63,54,63h108c4.971,0,9,5.037,9,11.25V141.75z"/>
</g>
<g>
	<rect x="58.271" y="94.833" fill="none" width="99.459" height="24.333"/>
	<path d="M61.237,101.774v-2.089c1.969-0.191,3.34-0.512,4.117-0.961c0.777-0.449,1.357-1.511,1.74-3.187h2.15v21.585h-2.906
		v-15.349L61.237,101.774L61.237,101.774z"/>
	<path d="M77.638,112.248c0.672-1.382,1.98-2.639,3.928-3.769l2.906-1.68c1.303-0.757,2.215-1.403,2.74-1.939
		c0.828-0.839,1.24-1.8,1.24-2.882c0-1.264-0.377-2.267-1.135-3.01c-0.756-0.743-1.766-1.115-3.027-1.115
		c-1.867,0-3.158,0.708-3.875,2.125c-0.383,0.759-0.596,1.812-0.635,3.157h-2.771c0.031-1.887,0.379-3.426,1.045-4.617
		c1.182-2.099,3.266-3.148,6.252-3.148c2.482,0,4.297,0.671,5.441,2.013c1.145,1.342,1.719,2.836,1.719,4.48
		c0,1.736-0.611,3.219-1.832,4.45c-0.707,0.717-1.973,1.584-3.799,2.604l-2.074,1.149c-0.988,0.545-1.766,1.065-2.332,1.561
		c-1.008,0.878-1.645,1.854-1.906,2.921h11.836v2.574h-14.88C76.581,115.256,76.966,113.631,77.638,112.248z"/>
	<path d="M96.187,101.123h3.164v3.3h-3.164V101.123z M96.187,113.822h3.164v3.301h-3.164V113.822z"/>
	<path d="M111.657,117.123v-5.299h-9.506v-2.664l9.93-13.774h2.301v14.062h3.193v2.376h-3.193v5.299H111.657z M111.611,109.448
		v-9.845l-6.946,9.845H111.611z"/>
	<path d="M121.557,104.438c-0.798-0.807-1.195-1.856-1.195-3.148c0-1.614,0.584-3.002,1.754-4.163
		c1.17-1.16,2.828-1.741,4.975-1.741c2.076,0,3.705,0.547,4.883,1.643c1.18,1.095,1.771,2.374,1.771,3.837
		c0,1.353-0.343,2.447-1.027,3.285c-0.385,0.475-0.979,0.938-1.784,1.393c0.899,0.414,1.608,0.888,2.127,1.423
		c0.961,1.009,1.442,2.321,1.442,3.936c0,1.908-0.642,3.524-1.924,4.852c-1.281,1.328-3.093,1.991-5.435,1.991
		c-2.108,0-3.893-0.573-5.35-1.718c-1.459-1.146-2.188-2.81-2.188-4.988c0-1.281,0.312-2.389,0.938-3.322
		c0.625-0.934,1.555-1.647,2.785-2.142C122.57,105.25,121.979,104.872,121.557,104.438z M130.343,114.238
		c0.834-0.68,1.25-1.697,1.25-3.049c0-1.402-0.43-2.469-1.286-3.194c-0.857-0.726-1.957-1.09-3.302-1.09
		c-1.301,0-2.362,0.371-3.187,1.113c-0.821,0.741-1.233,1.769-1.233,3.08c0,1.131,0.377,2.107,1.129,2.93
		c0.752,0.824,1.914,1.233,3.488,1.233C128.464,115.261,129.512,114.92,130.343,114.238z M129.839,103.52
		c0.675-0.672,1.013-1.474,1.013-2.405c0-0.809-0.322-1.552-0.968-2.23c-0.645-0.678-1.627-1.017-2.944-1.017
		c-1.312,0-2.256,0.339-2.84,1.017c-0.586,0.678-0.877,1.472-0.877,2.382c0,1.021,0.377,1.82,1.133,2.397s1.646,0.865,2.674,0.865
		C128.229,104.529,129.163,104.193,129.839,103.52z"/>
	<path d="M139.37,108.516h3.853c0.762,0,1.377,0.215,1.846,0.646c0.467,0.432,0.701,1.039,0.701,1.82
		c0,0.672-0.209,1.256-0.627,1.754s-1.058,0.748-1.918,0.748h-2.688v3.639h-1.166V108.516z M143.895,109.699
		c-0.256-0.121-0.607-0.182-1.054-0.182h-2.305v2.981h2.305c0.521,0,0.941-0.11,1.267-0.334c0.322-0.224,0.483-0.615,0.483-1.179
		C144.591,110.355,144.357,109.926,143.895,109.699z"/>
	<path d="M147.232,108.516h1.672l2.476,7.277l2.457-7.277h1.658v8.607h-1.113v-5.08c0-0.176,0.005-0.467,0.013-0.873
		s0.012-0.842,0.012-1.307l-2.457,7.26h-1.156l-2.48-7.26v0.264c0,0.211,0.006,0.531,0.019,0.963
		c0.012,0.432,0.019,0.75,0.019,0.953v5.08h-1.113v-8.607H147.232z"/>
</g>
</svg>
