<?xml version="1.0" encoding="utf-8"?>
<!-- Generator: Adobe Illustrator 16.2.0, SVG Export Plug-In . SVG Version: 6.00 Build 0)  -->
<!DOCTYPE svg PUBLIC "-//W3C//DTD SVG 1.1//EN" "http://www.w3.org/Graphics/SVG/1.1/DTD/svg11.dtd">
<svg version="1.1" id="Expressions" xmlns="http://www.w3.org/2000/svg" xmlns:xlink="http://www.w3.org/1999/xlink" x="0px"
	 y="0px" width="216px" height="216px" viewBox="0 0 216 216" enable-background="new 0 0 216 216" xml:space="preserve">
<g id="Backgrounds" display="none">
	<path display="inline" fill="#FDC431" d="M171,141.75c0,6.213-4.029,11.25-9,11.25H54c-4.971,0-9-5.037-9-11.25v-67.5
		C45,68.037,49.029,63,54,63h108c4.971,0,9,5.037,9,11.25V141.75z"/>
</g>
<g>
	<circle cx="129.438" cy="93.625" r="5.875"/>
	<rect x="128.253" y="75.496" transform="matrix(-0.8854 -0.4648 0.4648 -0.8854 220.8819 211.4422)" width="16.5" height="6"/>
	<g>
		<circle cx="86.562" cy="93.625" r="5.875"/>
		<rect x="71.253" y="75.497" transform="matrix(0.8854 -0.4648 0.4648 0.8854 -27.3752 45.9459)" width="16.5" height="6"/>
	</g>
	<line fill="none" stroke="#000000" stroke-width="4" stroke-miterlimit="10" x1="89.134" y1="130.992" x2="128.094" y2="123.27"/>
	<path fill="none" stroke="#000000" stroke-width="4" stroke-miterlimit="10" d="M132.205,108.527
		c-3.803,2.929-6.251,7.527-6.251,12.695c0,8.846,7.17,16.017,16.017,16.017"/>
	<path fill="none" stroke="#000000" stroke-width="4" stroke-miterlimit="10" d="M81.426,118.01
		c5.523,2.023,9.465,7.326,9.465,13.551c0,7.271-5.379,13.284-12.375,14.28"/>
</g>
</svg>
