<?xml version="1.0" encoding="utf-8"?>
<!-- Generator: Adobe Illustrator 16.2.0, SVG Export Plug-In . SVG Version: 6.00 Build 0)  -->
<!DOCTYPE svg PUBLIC "-//W3C//DTD SVG 1.1//EN" "http://www.w3.org/Graphics/SVG/1.1/DTD/svg11.dtd">
<svg version="1.1" id="Expressions" xmlns="http://www.w3.org/2000/svg" xmlns:xlink="http://www.w3.org/1999/xlink" x="0px"
	 y="0px" width="216px" height="216px" viewBox="0 0 216 216" enable-background="new 0 0 216 216" xml:space="preserve">
<g id="Backgrounds" display="none">
	<path display="inline" fill="#92BE52" d="M171,141.75c0,6.213-4.029,11.25-9,11.25H54c-4.971,0-9-5.037-9-11.25v-67.5
		C45,68.037,49.029,63,54,63h108c4.971,0,9,5.037,9,11.25V141.75z"/>
</g>
<g>
	<circle cx="129.438" cy="93.625" r="5.875"/>
	<circle cx="86.562" cy="93.625" r="5.875"/>
	<rect x="128.25" y="75.5" transform="matrix(0.8854 0.4648 -0.4648 0.8854 52.1327 -54.4536)" width="16.5" height="6"/>
	<rect x="71.25" y="75.5" transform="matrix(-0.8854 0.4648 -0.4648 -0.8854 186.3786 111.0494)" width="16.5" height="6"/>
	<path fill="none" stroke="#000000" stroke-width="4" stroke-miterlimit="10" d="M45,125.333h25.5l1.583-0.166
		c3.666,0.166,3.982-6.306,6.5-6.666c2.811-0.402,6.163,18.836,8.585,19.166c3.666,0.5,6.272-22.491,11.31-22.491
		c5.039,0,3.687,18.833,8.522,19.324s3.802-26.333,11.667-25.972c5.424,0.249,2.698,33.086,8.501,33.473
		c5.801,0.387,3.491-24.474,7.786-24.57s6.047,7.402,9.547,7.902H171"/>
</g>
<g>
</g>
<g>
</g>
<g>
</g>
<g>
</g>
<g>
</g>
<g>
</g>
</svg>
