<?xml version="1.0" encoding="utf-8"?>
<!-- Generator: Adobe Illustrator 16.2.0, SVG Export Plug-In . SVG Version: 6.00 Build 0)  -->
<!DOCTYPE svg PUBLIC "-//W3C//DTD SVG 1.1//EN" "http://www.w3.org/Graphics/SVG/1.1/DTD/svg11.dtd">
<svg version="1.1" id="Layer_1" xmlns="http://www.w3.org/2000/svg" xmlns:xlink="http://www.w3.org/1999/xlink" x="0px" y="0px"
	 width="800px" height="800px" viewBox="0 0 800 800" enable-background="new 0 0 800 800" xml:space="preserve">
<g id="Layer_2">
	<g>
		
			<path fill="#FFFFFF" stroke="#000000" stroke-width="6" stroke-linecap="round" stroke-linejoin="round" stroke-miterlimit="10" d="
			M251.794,488.91c-13.111-1.43-25.158-6.205-37.811-9.533c-11.823-3.109-23.971-4.705-36.112-5.947
			c-9.637-0.983-19.223-2.399-28.822-3.688c-5.414-0.728-10.739-2.004-16.151-2.723c-4.733-0.63-9.562-0.066-14.267-0.896
			c-4.948-0.869-9.174-4.168-13.621-6.303c-4.801-2.308-9.704-4.369-13.798-7.867c-6.162-5.262-9.814-12.344-11.094-20.316
			c-1.695-10.553,1.354-19.182,7.743-27.221c3.939-4.958,10.175-6.828,15.317-10.167l0.354-0.798
			c-1.665-2.344-4.323-3.611-6.705-5.173c-7.951-5.213-12.287-12.665-13.634-22.049c-1.611-11.217,1.812-20.886,8.998-29.258
			c4.82-5.614,10.218-10.729,15.214-16.198c13.383-14.648,1.334-34.238,15.224-47.738c5.862-5.696,14.038-8.272,20-13.808
			c12.571-11.674,8.174-31.229,23.191-42.381c12.311-9.143,28.738-9.991,43.51-9.622c56.059,1.402,113.396,22.909,163.66,46.316
			c56.367,26.249,270.272,17.895,330.99,16.119c5.52-0.161,11.044-0.197,16.56-0.448c13.315-0.607,19.729,10.025,23.362,21.006
			c10.285,31.078,17.406,63.628,17.246,96.493c-0.069,14.136-1.287,28.22-4.246,42.046c-2.785,13.021-3.268,30.176-16.286,37.545
			c-14.381,8.142-34.658,9.282-50.116,8.198c-15.017-1.049-184.974,1.22-199.993,2.058c-23.918,1.341-47.926,4.871-70.538,13.017
			c-22.089,7.955-41.891,20.938-63.714,29.537c-62.674,24.688-134.295,8.916-199.682,9.584
			c-21.294,0.217-66.322,13.762-76.404-14.422c-7.031-19.656,4.523-35.279,21.284-43.229c3.787-1.795,8.387-4.238,14.709-5.559"/>
	</g>
</g>
<g id="Layer_1_1_" display="none">
	<g id="Backgrounds" display="inline">
		<path fill="#282561" d="M484.553,396.718h-1.52c-0.621,0-1.357,0-2.084,0v-3.094c0-2.485-2.017-4.5-4.5-4.5h-1.799
			c-0.789,0-1.73,0-2.65,0v-18c0-4.971-4.031-9-9-9h-25.5c0-1.214,0-2.605,0-3.7v-1.8c0-2.485-2.016-4.5-4.5-4.5h-10
			c0-0.623,0-1.23,0-1.767v-1.8c0-2.485-2.016-4.5-4.5-4.5h-15.334V321.46c1.434-1.002,2.375-2.662,2.375-4.544
			c0-3.061-2.48-5.542-5.542-5.542c-3.061,0-5.541,2.481-5.541,5.542c0,1.882,0.94,3.542,2.375,4.544v22.598H381.5
			c-2.485,0-4.5,2.015-4.5,4.5v1.8c0,0.536,0,1.144,0,1.767h-10c-2.485,0-4.5,2.015-4.5,4.5v1.8c0,1.095,0,2.486,0,3.7H337
			c-4.971,0-9,4.029-9,9v18c-0.919,0-1.862,0-2.65,0h-1.8c-2.482,0-4.5,2.015-4.5,4.5v3.094c-0.727,0-1.462,0-2.084,0h-1.519
			c-2.101,0-3.797,1.699-3.797,3.797v31.221c0,2.097,1.696,3.798,3.797,3.798h1.519c0.622,0,1.357,0,2.084,0v3.094
			c0,2.485,2.018,4.5,4.5,4.5h1.8c0.789,0,1.731,0,2.65,0v18c0,4.972,4.029,9,9,9h126c4.969,0,9-4.028,9-9v-18
			c0.92,0,1.861,0,2.65,0h1.799c2.483,0,4.5-2.015,4.5-4.5v-3.094c0.727,0,1.463,0,2.084,0h1.52c2.101,0,3.797-1.701,3.797-3.798
			v-31.222C488.35,398.417,486.65,396.718,484.553,396.718z M463,449.75c0,6.213-4.029,11.25-9,11.25H346c-4.971,0-9-5.037-9-11.25
			v-67.5c0-6.213,4.029-11.25,9-11.25h108c4.971,0,9,5.037,9,11.25V449.75z"/>
	</g>
</g>
</svg>
