<?xml version="1.0" encoding="utf-8"?>
<!-- Generator: Adobe Illustrator 16.2.0, SVG Export Plug-In . SVG Version: 6.00 Build 0)  -->
<!DOCTYPE svg PUBLIC "-//W3C//DTD SVG 1.1//EN" "http://www.w3.org/Graphics/SVG/1.1/DTD/svg11.dtd">
<svg version="1.1" id="Layer_1" xmlns="http://www.w3.org/2000/svg" xmlns:xlink="http://www.w3.org/1999/xlink" x="0px" y="0px"
	 width="800px" height="800px" viewBox="0 0 800 800" enable-background="new 0 0 800 800" xml:space="preserve">
<g id="XMLID_1_">
	<g>
		<g id="XMLID_2_">
			<g>
				<path fill="#FFFFFF" d="M711.5,471.25l-418.82-3.01l425.79-200.98c3.96-0.12,7.66-0.24,11.05-0.34L711.5,471.25z"/>
				<path fill="#FFFFFF" d="M356.25,519.11c-62.67,24.689-134.29,8.92-199.68,9.59c-21.29,0.21-66.32,13.76-76.4-14.431
					c-7.03-19.649,4.52-35.279,21.28-43.229c3.79-1.79,8.39-4.23,14.71-5.55h0.05c0.79,0.27,1.59,0.479,2.42,0.63
					c4.71,0.83,9.54,0.27,14.27,0.899c5.41,0.721,10.73,1.99,16.15,2.721c9.6,1.29,19.18,2.71,28.82,3.689
					c12.14,1.24,24.29,2.84,36.11,5.95c12.66,3.33,24.7,8.101,37.81,9.53l40.89-20.67l418.82,3.01
					c-43.52-0.24-207.92,4.58-220.99,5.31c-23.92,1.341-47.93,4.87-70.54,13.011C397.88,497.53,378.08,510.51,356.25,519.11z"/>
				<path fill="#FFFFFF" d="M292.68,468.24l-176.47-2.75c-3.95-1.311-7.49-3.891-11.2-5.67c-4.8-2.311-9.7-4.37-13.8-7.87
					c-6.16-5.26-9.81-12.34-11.09-20.311c-1.7-10.56,1.35-19.18,7.74-27.22c3.94-4.96,10.18-6.83,15.32-10.17l0.35-0.8
					c-1.66-2.34-4.32-3.61-6.7-5.17c-7.95-5.21-12.29-12.67-13.64-22.05c-1.61-11.22,1.81-20.89,9-29.26
					c4.82-5.61,10.22-10.73,15.21-16.2c13.39-14.65,1.34-34.23,15.23-47.73c5.86-5.7,14.04-8.28,20-13.81
					c12.57-11.68,8.17-31.23,23.19-42.38c12.31-9.15,28.74-10,43.51-9.63c56.06,1.41,113.4,22.91,163.66,46.32
					c51.38,23.93,267.63,16.1,345.479,13.72L292.68,468.24z"/>
				<path fill="#FFFFFF" d="M118.63,466.12c-0.83-0.15-1.63-0.36-2.42-0.63l176.47,2.75l-40.89,20.67
					c-13.11-1.43-25.15-6.2-37.81-9.53c-11.82-3.11-23.97-4.71-36.11-5.95c-9.64-0.979-19.22-2.399-28.82-3.689
					c-5.42-0.73-10.74-2-16.15-2.721C128.17,466.39,123.34,466.95,118.63,466.12z"/>
			</g>
			<g>
				
					<path fill="none" stroke="#000000" stroke-width="6" stroke-linecap="round" stroke-linejoin="round" stroke-miterlimit="10" d="
					M711.5,471.25c-43.52-0.24-207.92,4.58-220.99,5.31c-23.92,1.341-47.93,4.87-70.54,13.011c-22.09,7.96-41.89,20.939-63.72,29.54
					c-62.67,24.689-134.29,8.92-199.68,9.59c-21.29,0.21-66.32,13.76-76.4-14.431c-7.03-19.649,4.52-35.279,21.28-43.229
					c3.79-1.79,8.39-4.23,14.71-5.55"/>
				
					<path fill="none" stroke="#000000" stroke-width="6" stroke-linecap="round" stroke-linejoin="round" stroke-miterlimit="10" d="
					M718.47,267.26c3.96-0.12,7.66-0.24,11.05-0.34"/>
				
					<path fill="none" stroke="#000000" stroke-width="6" stroke-linecap="round" stroke-linejoin="round" stroke-miterlimit="10" d="
					M251.79,488.91c-13.11-1.43-25.15-6.2-37.81-9.53c-11.82-3.11-23.97-4.71-36.11-5.95c-9.64-0.979-19.22-2.399-28.82-3.689
					c-5.42-0.73-10.74-2-16.15-2.721c-4.73-0.63-9.56-0.069-14.27-0.899c-0.83-0.15-1.63-0.36-2.42-0.63
					c-3.95-1.311-7.49-3.891-11.2-5.67c-4.8-2.311-9.7-4.37-13.8-7.87c-6.16-5.26-9.81-12.34-11.09-20.311
					c-1.7-10.56,1.35-19.18,7.74-27.22c3.94-4.96,10.18-6.83,15.32-10.17l0.35-0.8c-1.66-2.34-4.32-3.61-6.7-5.17
					c-7.95-5.21-12.29-12.67-13.64-22.05c-1.61-11.22,1.81-20.89,9-29.26c4.82-5.61,10.22-10.73,15.21-16.2
					c13.39-14.65,1.34-34.23,15.23-47.73c5.86-5.7,14.04-8.28,20-13.81c12.57-11.68,8.17-31.23,23.19-42.38
					c12.31-9.15,28.74-10,43.51-9.63c56.06,1.41,113.4,22.91,163.66,46.32c51.38,23.93,267.63,16.1,345.479,13.72"/>
			</g>
		</g>
	</g>
</g>
<g id="Layer_1_1_" display="none">
	<g id="Backgrounds" display="inline">
		<path fill="#282561" d="M484.553,396.718h-1.52c-0.621,0-1.357,0-2.084,0v-3.094c0-2.485-2.019-4.5-4.5-4.5h-1.799
			c-0.789,0-1.73,0-2.65,0v-18c0-4.971-4.031-9-9-9h-25.5c0-1.214,0-2.605,0-3.7v-1.8c0-2.485-2.016-4.5-4.5-4.5h-10
			c0-0.623,0-1.23,0-1.767v-1.802c0-2.483-2.016-4.5-4.5-4.5h-15.334V321.46c1.434-1.002,2.375-2.662,2.375-4.544
			c0-3.061-2.48-5.542-5.542-5.542s-5.541,2.481-5.541,5.542c0,1.882,0.94,3.542,2.375,4.544v22.598H381.5
			c-2.485,0-4.5,2.017-4.5,4.5v1.802c0,0.534,0,1.144,0,1.767h-10c-2.485,0-4.5,2.015-4.5,4.5v1.8c0,1.095,0,2.486,0,3.7H337
			c-4.971,0-9,4.029-9,9v18c-0.919,0-1.862,0-2.65,0h-1.8c-2.482,0-4.5,2.015-4.5,4.5v3.094c-0.727,0-1.462,0-2.084,0h-1.519
			c-2.103,0-3.797,1.699-3.797,3.797v31.223c0,2.097,1.696,3.798,3.797,3.798h1.519c0.622,0,1.357,0,2.084,0v3.094
			c0,2.485,2.018,4.5,4.5,4.5h1.8c0.789,0,1.731,0,2.65,0v18c0,4.972,4.029,9,9,9h126c4.969,0,9-4.028,9-9v-18
			c0.92,0,1.861,0,2.65,0h1.799c2.481,0,4.5-2.015,4.5-4.5v-3.094c0.727,0,1.463,0,2.084,0h1.52c2.103,0,3.797-1.701,3.797-3.798
			v-31.224C488.35,398.417,486.65,396.718,484.553,396.718z M463,449.75c0,6.213-4.029,11.25-9,11.25H346c-4.971,0-9-5.037-9-11.25
			v-67.5c0-6.213,4.029-11.25,9-11.25h108c4.971,0,9,5.037,9,11.25V449.75z"/>
	</g>
</g>
</svg>
